<svg width="current" height="current" fill="none" stroke="current" viewBox="0 0 292 260" xmlns="http://www.w3.org/2000/svg">
<path d="M173.132 130.03C173.132 137.242 170.267 144.158 165.168 149.258C160.069 154.358 153.152 157.225 145.939 157.229C138.724 157.229 131.804 154.363 126.703 149.262C121.601 144.162 118.735 137.244 118.735 130.03C118.734 122.819 121.599 115.903 126.698 110.803C131.798 105.702 138.714 102.836 145.927 102.832C153.142 102.832 160.062 105.698 165.164 110.798C170.265 115.899 173.132 122.817 173.132 130.03ZM205.349 0C188.973 0 167.547 11.6772 145.878 31.8933C124.222 11.7867 102.784 0.243275 86.4198 0.243275C81.4315 0.243275 76.8933 1.3745 72.9635 3.6248C56.2343 13.2706 52.487 43.3273 61.1253 81.047C24.09 92.4809 0 110.763 0 130.03C0 149.371 24.2117 167.702 61.3565 179.05C52.7912 216.916 56.6115 247.021 73.3772 256.655C77.2705 258.93 81.7722 260 86.7848 260C103.149 260 124.587 248.323 146.256 228.082C167.912 248.201 189.35 259.745 205.714 259.745C210.702 259.745 215.241 258.65 219.17 256.4C235.887 246.766 239.647 216.709 231.008 178.977C267.91 167.641 292 149.322 292 130.03C292 110.69 267.788 92.3593 230.644 80.9862C239.209 43.157 235.389 13.0274 218.623 3.38152C214.754 1.14339 210.252 0.0121637 205.337 0H205.349ZM205.288 13.2585V13.3315C208.026 13.3315 210.228 13.8667 212.077 14.8763C220.18 19.5228 223.696 37.1967 220.959 59.9308C220.302 65.5261 219.231 71.4255 217.917 77.4466C206.237 74.5759 193.511 72.3743 180.115 70.9511C172.085 59.9429 163.751 49.9443 155.356 41.1864C174.726 23.1841 192.915 13.3071 205.3 13.2706L205.288 13.2585ZM86.4198 13.5018C98.7325 13.5018 117.007 23.3301 136.425 41.2351C128.079 49.993 119.757 59.9308 111.848 70.9389C98.3797 72.3621 85.6412 74.5637 73.9733 77.483C72.6107 71.5228 71.6008 65.7572 70.883 60.2105C68.0847 37.4887 71.54 19.8269 79.57 15.1195C81.8817 14.0248 84.4367 13.5747 86.4198 13.5139V13.5018ZM145.818 50.6012C151.353 56.2938 156.889 62.6676 162.364 69.6253C157.011 69.382 151.536 69.2117 146 69.2117C140.403 69.2117 134.868 69.3333 129.453 69.6253C134.807 62.6676 140.342 56.2938 145.818 50.589V50.6012ZM146 82.5432C155.003 82.5432 163.97 82.9567 172.791 83.6744C177.731 90.7537 182.549 98.3074 187.184 106.299C191.71 114.084 195.823 121.99 199.57 129.97C195.823 137.937 191.71 145.904 187.245 153.689C182.622 161.717 177.84 169.356 172.888 176.435C164.031 177.201 155.052 177.627 146 177.627C136.997 177.627 128.03 177.201 119.209 176.496C114.269 169.417 109.451 161.851 104.816 153.871C100.29 146.087 96.1775 138.18 92.4302 130.201C96.1167 122.209 100.29 114.23 104.755 106.433C109.378 98.4047 114.16 90.7902 119.112 83.7109C127.969 82.9324 136.948 82.5188 146 82.5188V82.5432ZM101.774 85.6328C98.8542 90.2185 95.9342 94.9137 93.2088 99.7427C90.4713 104.487 87.9163 109.255 85.483 114.023C82.2588 106.044 79.5213 98.0884 77.2583 90.3401C85.045 88.5156 93.2575 86.8978 101.774 85.6449V85.6328ZM190.104 85.6328C198.56 86.8856 206.712 88.4304 214.511 90.3401C212.321 98.0276 209.583 105.934 206.481 113.853C204.047 109.109 201.492 104.328 198.694 99.5724C195.956 94.8042 193.036 90.1577 190.116 85.6328H190.104ZM227.371 93.8433C233.259 95.6678 238.856 97.6992 244.1 99.9008C265.173 108.902 278.799 120.676 278.799 130.018C278.738 139.36 265.112 151.183 244.039 160.124C238.929 162.313 233.332 164.284 227.553 166.12C224.146 154.467 219.694 142.328 214.17 129.872C219.645 117.502 224.025 105.423 227.371 93.819V93.8433ZM64.3982 93.8919C67.7805 105.569 72.2457 117.696 77.7815 130.14C72.3065 142.51 67.9022 154.589 64.5685 166.193C58.6798 164.369 53.0832 162.325 47.9002 160.111C26.8275 151.147 13.2008 139.36 13.2008 130.018C13.2008 120.676 26.8275 108.829 47.9002 99.9008C53.0102 97.7113 58.6068 95.7408 64.3982 93.8919ZM206.481 145.953C209.705 153.944 212.442 161.912 214.705 169.648C206.919 171.557 198.694 173.175 190.177 174.392C193.097 169.83 196.017 165.123 198.755 160.306C201.492 155.562 204.047 150.721 206.493 145.953H206.481ZM85.483 146.196C87.9163 150.964 90.4713 155.72 93.2697 160.488C96.068 165.232 98.9272 169.879 101.847 174.392C93.3913 173.151 85.2397 171.594 77.4408 169.696C79.6308 162.033 82.3805 154.102 85.4708 146.184L85.483 146.196ZM218.027 182.529C219.389 188.526 220.46 194.304 221.117 199.838C223.915 222.56 220.46 240.222 212.43 244.941C210.641 246.036 208.318 246.498 205.58 246.498C193.268 246.498 174.993 236.682 155.575 218.765C163.921 210.007 172.243 200.081 180.152 189.085C193.62 187.65 206.359 185.436 218.027 182.517V182.529ZM74.095 182.651C85.775 185.497 98.5013 187.699 111.897 189.122C119.927 200.13 128.261 210.129 136.656 218.874C117.25 236.913 99.0367 246.79 86.651 246.79C83.9743 246.729 81.7113 246.182 79.9228 245.185C71.8198 240.562 68.3037 222.876 71.0412 200.142C71.6982 194.547 72.7688 188.66 74.0828 182.651H74.095ZM129.575 190.436C134.928 190.679 140.403 190.849 145.939 190.849C151.536 190.849 157.072 190.727 162.486 190.436C157.132 197.393 151.597 203.755 146.122 209.472C140.586 203.755 135.05 197.393 129.575 190.436Z" fill=current/>
</svg>
